<?xml version="1.0" encoding="UTF-8"?>
<svg width="40px" height="38px" viewBox="0 0 40 38" version="1.1" xmlns="http://www.w3.org/2000/svg" xmlns:xlink="http://www.w3.org/1999/xlink">
    <!-- Generator: sketchtool 52.6 (67491) - http://www.bohemiancoding.com/sketch -->
    <title>7A516B4E-D761-492C-B2B8-8F2A37D29480</title>
    <desc>Created with sketchtool.</desc>
    <g id="Page-1" stroke="none" stroke-width="1" fill="none" fill-rule="evenodd">
        <g id="LandingPage" transform="translate(-90.000000, -30.000000)" fill="#0C3C3D">
            <g id="header" transform="translate(-123.000000, 0.000000)">
                <g id="text" transform="translate(203.000000, 30.000000)">
                    <path d="M20.7214795,35.6112689 C20.0421201,35.6112689 19.6175205,35.0958049 19.6175205,34.2525502 C19.6175205,30.2678528 27.5240745,21.2169179 35.4114366,13.5448278 C34.0778542,22.1613124 25.2664785,35.6112689 20.7214795,35.6112689 M49.0242695,0.00290308231 C47.938908,0.0290584174 45.7123078,0.113298977 43.7590647,0.141322551 C43.0719776,0.151173261 42.7975165,0.459857168 42.8855784,0.902969306 C42.9893505,1.42514189 43.3334461,1.81178228 43.8512028,1.82545439 C44.5179091,1.84311773 45.410842,1.73178772 46.5557324,1.67548581 C43.9530218,3.67806735 40.8039364,6.31024516 37.5549852,9.2387935 C37.1733551,6.2924969 35.8074182,3.93613898 33.1197877,3.93613898 C29.2134714,3.93613898 25.3071551,9.88053333 23.6087567,13.1924102 C23.4389169,10.4749728 22.250038,7.92737519 19.7024405,7.92737519 C14.4058153,7.92737519 10,19.9800593 10,21.7836735 C10,22.400277 10.705175,22.873281 11.1297746,22.873281 C11.6392941,22.873281 11.804888,22.6185212 11.9747278,22.0240818 C14.1826457,14.8058886 17.4945226,9.79561341 19.7024405,9.79561341 C20.8063994,9.79561341 21.6555986,11.0694122 21.6555986,14.0416094 C21.6555986,16.2284671 21.2830549,17.556275 21.2830549,18.0744563 C21.2830549,18.8841678 21.9952783,19.3066444 22.4198779,19.3066444 C22.9293974,19.3066444 23.0992372,19.0518846 23.353997,18.4574452 C25.9015946,12.1733711 30.0626706,5.88929712 33.0348678,5.88929712 C34.4984626,5.88929712 35.4941486,7.75880915 35.5762662,11.048437 C26.6651945,19.3157308 17.6871209,29.2781111 17.6871209,34.1790095 C17.6871209,36.218701 18.8118003,37.3945872 20.6365596,37.3945872 C27.1879615,37.3945872 37.4413624,21.1121268 37.6645319,11.3893905 C41.3103988,7.95888048 44.7868505,4.96324541 47.2886762,3.0571329 C46.9034795,4.01290659 46.5152256,4.94252494 46.3177019,5.63640561 C46.1730832,6.14405688 46.2611452,6.70223551 46.8850518,6.94485172 C47.2795898,7.09830201 47.6312432,6.87589675 47.7858823,6.43490761 C48.7260308,3.75237228 49.210414,2.65206488 49.7854917,1.11730718 C50.161602,0.113468817 50.1214349,-0.0235070126 49.0242695,0.00290308231" id="manual-symblol"></path>
                </g>
            </g>
        </g>
    </g>
</svg>